<?xml version="1.0" encoding="UTF-8" standalone="no"?>
<!-- Created with Inkscape (http://www.inkscape.org/) -->

<svg
   xmlns:dc="http://purl.org/dc/elements/1.1/"
   xmlns:cc="http://creativecommons.org/ns#"
   xmlns:rdf="http://www.w3.org/1999/02/22-rdf-syntax-ns#"
   xmlns:svg="http://www.w3.org/2000/svg"
   xmlns="http://www.w3.org/2000/svg"
   xmlns:sodipodi="http://sodipodi.sourceforge.net/DTD/sodipodi-0.dtd"
   xmlns:inkscape="http://www.inkscape.org/namespaces/inkscape"
   width="744.09448819"
   height="1052.3622047"
   id="svg2"
   version="1.1"
   inkscape:version="0.48.4 r9939"
   sodipodi:docname="drawing2.svg">
  <defs
     id="defs4" />
  <sodipodi:namedview
     id="base"
     pagecolor="#ffffff"
     bordercolor="#666666"
     borderopacity="1.0"
     inkscape:pageopacity="0.0"
     inkscape:pageshadow="2"
     inkscape:zoom="1.979899"
     inkscape:cx="228.01016"
     inkscape:cy="601.3922"
     inkscape:document-units="px"
     inkscape:current-layer="layer1"
     showgrid="false"
     inkscape:window-width="1280"
     inkscape:window-height="961"
     inkscape:window-x="1912"
     inkscape:window-y="-8"
     inkscape:window-maximized="1" />
  <metadata
     id="metadata7">
    <rdf:RDF>
      <cc:Work
         rdf:about="">
        <dc:format>image/svg+xml</dc:format>
        <dc:type
           rdf:resource="http://purl.org/dc/dcmitype/StillImage" />
        <dc:title></dc:title>
      </cc:Work>
    </rdf:RDF>
  </metadata>
  <g
     inkscape:label="Layer 1"
     inkscape:groupmode="layer"
     id="layer1">
    <rect
       style="fill:#ffffff;fill-opacity:1;stroke:#b0b0b0;stroke-width:1;stroke-linecap:round;stroke-linejoin:round;stroke-miterlimit:4;stroke-opacity:1;stroke-dasharray:none;stroke-dashoffset:0"
       id="rect4561"
       width="291.42856"
       height="288.57144"
       x="427.8645"
       y="285.21933" />
    <rect
       style="opacity:0.55309735;fill:#444444;fill-opacity:1;stroke:none"
       id="rect3002"
       width="257.14301"
       height="257.14301"
       x="445.00739"
       y="300.21918"
       inkscape:export-filename="D:\java\install\web\sublime\xprt-site\design\profile.png"
       inkscape:export-xdpi="56"
       inkscape:export-ydpi="56" />
    <g
       id="g2996"
       transform="translate(87.72165,23.714282)"
       inkscape:export-filename="D:\java\install\web\sublime\xprt-site\design\profile.png"
       inkscape:export-xdpi="56"
       inkscape:export-ydpi="56">
      <path
         style="fill:#ffffff;fill-opacity:1"
         d="m 405.46017,524.15949 c -16.11261,-3.50501 -26.59151,-14.52735 -29.45752,-30.9852 -2.4654,-14.15734 0.89073,-43.40066 6.9441,-60.50677 7.13075,-20.15066 19.68438,-32.52206 36.53674,-36.00638 8.21623,-1.69874 11.00738,-0.98795 20.7169,5.27575 11.57221,7.46533 15.29986,9.25704 25.54869,12.28014 15.93751,4.7011 33.21264,3.34393 49.47902,-3.88715 2.93883,-1.30644 9.33393,-4.95625 14.21133,-8.11069 10.09209,-6.52702 12.93361,-7.27129 21.21993,-5.55805 26.35312,5.44865 41.60281,32.44308 44.07105,78.01288 1.30159,24.03056 -4.91166,38.35242 -20.015,46.13557 -8.95496,4.61473 -12.61825,4.80741 -90.14398,4.74143 -56.80405,-0.0484 -74.35586,-0.35708 -79.11126,-1.39153 z M 472.07143,404.0878 c -20.01271,-4.31374 -38.31933,-21.21196 -44.57248,-41.14333 -2.35372,-7.50229 -2.87918,-21.61095 -1.11324,-29.89057 2.44934,-11.48376 7.07787,-19.77676 16.26398,-29.14041 6.66387,-6.79266 9.5528,-8.92274 16.5,-12.16588 13.05683,-6.09527 25.35104,-7.56376 39.03702,-4.66278 16.83757,3.569 33.41491,16.85298 40.81578,32.70702 6.38543,13.67879 7.66733,26.28645 4.0935,40.26002 -2.8767,11.24778 -7.33269,18.9629 -15.99091,27.68677 -14.76187,14.87378 -34.57354,20.75935 -55.03365,16.34916 z"
         id="path2998"
         inkscape:connector-curvature="0" />
    </g>
    <g
       id="g4574"
       transform="matrix(1.3204971,0,0,1.320477,376.43915,-143.56784)"
       inkscape:export-filename="D:\install\web\sublime\babysitter-trunk\design\profile.png"
       inkscape:export-xdpi="90"
       inkscape:export-ydpi="90">
      <path
         style="fill:#6d6d6d"
         d="m -258.25164,500.403 c -0.26317,-0.69031 -0.36243,-43.33011 -0.22057,-94.75511 l 0.25792,-93.5 94.5,0 94.5,0 0,94.5 0,94.5 -94.27943,0.25511 c -74.89515,0.20265 -94.3778,-0.003 -94.75792,-1 z"
         id="path4578"
         inkscape:connector-curvature="0" />
      <path
         style="fill:#565656"
         d="m -240.71429,498.69496 c 0,-1.54035 8.79048,-24.71606 11.06812,-29.1806 3.55494,-6.96826 9.98964,-11.96927 29.8011,-23.16126 10.50959,-5.93713 19.5634,-11.64504 20.11957,-12.68425 2.46016,-4.59686 1.26584,-7.98137 -4.79192,-13.57954 -5.95184,-5.50029 -9.68331,-11.53618 -10.84386,-17.54062 -0.40631,-2.10215 -2.12668,-4.77414 -4.50516,-6.99719 -4.87828,-4.55948 -5.14006,-8.36228 -0.90747,-13.18293 l 2.94039,-3.34891 -0.99908,-10.43588 c -1.168,-12.20051 2.88006,-18.77106 6.09502,-25.58561 4.09875,-8.68788 9.36452,-10.82655 17.01182,-12.13178 7.78438,-1.32863 17.98477,-1.69034 26.01147,4.62759 1.925,1.5152 5.60889,3.54597 8.18642,4.51284 5.6806,2.13085 6.24186,5.14365 7.93543,10.79628 0.94923,3.16828 5.99134,9.49296 5.17987,17.6693 -0.9596,9.66875 -0.89411,10.8641 0.69442,12.67549 5.06713,5.77802 4.8685,10.97599 -0.57816,15.13036 -1.87989,1.43386 -3.41798,3.21173 -3.41798,3.95082 0,0.73909 -0.94248,3.86279 -2.09439,6.94156 -1.51109,4.03874 -3.87842,7.3906 -8.5,12.03499 -5.46097,5.48792 -6.40561,6.96044 -6.40561,9.9852 0,2.34906 0.76031,4.30485 2.25,5.78781 1.2375,1.23191 10.10292,6.68554 19.70094,12.11917 18.5463,10.49944 24.95197,15.48304 28.28433,22.00514 1.60339,3.13817 10.76473,28.88529 10.76473,30.25331 0,0.1604 -34.425,0.29164 -76.5,0.29164 -47.81438,0 -76.5,-0.35733 -76.5,-0.95293 z"
         id="path4576"
         inkscape:connector-curvature="0"
         sodipodi:nodetypes="sssssssscsssssssssssssssssss" />
    </g>
  </g>
</svg>
